<?xml version="1.0" encoding="UTF-8" standalone="no"?>
<!DOCTYPE svg PUBLIC "-//W3C//DTD SVG 1.1//EN" "http://www.w3.org/Graphics/SVG/1.1/DTD/svg11.dtd">
<svg xmlns="http://www.w3.org/2000/svg" xmlns:xlink="http://www.w3.org/1999/xlink" version="1.1" width="840pt" height="314pt" viewBox="0 0 840 314">
    <g enable-background="new">
        <g>
            <clipPath id="cp0">
                <path transform="matrix(1,0,0,-1,.5,.49783326)" d="M 0 0 L 820 0 L 820 -294.02436 L 0 -294.02436 L 0 0 Z " fill-rule="evenodd" />
            </clipPath>
            <g clip-path="url(#cp0)">
                <g>
                    <clipPath id="cp1">
                        <path transform="matrix(1,0,0,-1,.5,294.5222)" d="M 0 -294.02436 L 840 -294.02436 L 840 294.02436 L 0 294.02436 Z " fill-rule="evenodd" />
                    </clipPath>
                    <g clip-path="url(#cp1)">
                        <path transform="matrix(1,0,0,-1,.5,.49783326)" d="M 0 0 L 820 0 L 820 -294.02436 L 0 -294.02436 L 0 0 Z " fill="transparent" fill-rule="evenodd" />
                        <clipPath id="cp2">
                            <path transform="matrix(1,0,0,-1,11.42663,10.485016)" d="M 0 0 L 794.0383 0 L 794.0383 -249.555 L 0 -249.555 L 0 0 Z " fill-rule="evenodd" />
                        </clipPath>
                        <g clip-path="url(#cp2)">
                            <g>
                                <clipPath id="cp3">
                                    <path transform="matrix(1,0,0,-1,11.42663,260.04)" d="M 0 -249.555 L 840 -249.555 L 840 249.555 L 0 249.555 Z " fill-rule="evenodd" />
                                </clipPath>
                                <g clip-path="url(#cp3)">
                                    <clipPath id="cp4">
                                        <path transform="matrix(1,0,0,-1,11.42663,10.485016)" d="M 0 0 L 215.7288 0 L 215.7288 -249.555 L 0 -249.555 L 0 0 Z " fill-rule="evenodd" />
                                    </clipPath>
                                    <g clip-path="url(#cp4)">
                                        <g>
                                            <clipPath id="cp5">
                                                <path transform="matrix(1,0,0,-1,11.42663,260.04)" d="M 0 -249.555 L 840 -249.555 L 840 249.555 L 0 249.555 Z " fill-rule="evenodd" />
                                            </clipPath>
                                            <g clip-path="url(#cp5)">
                                                <path transform="matrix(1,0,0,-1,35.46044,85.70587)" d="M 188.50719 -73.1845 C 186.7154 -70.29133 184.45941 -67.29001 182.2783 -64.38685 C 179.8077 -61.09938 175.6967 -55.62747 175.2109 -53.53454 L 175.2109 0 L 165.50655 -2.03304 L 157.97997 -3.61023 L 157.97997 -1.65372 C 157.3095 -1.99311 156.5159 -2.19442 155.59255 -2.19442 C 153.84734 -2.19442 152.55796 -1.49068 151.71779 -.45253 L 53.91553 -.45253 C 54.14844 -2.28925 54.53276 -4.15592 54.61594 -5.93442 C 54.72908 -5.65824 54.8655 -5.39538 55.0535 -5.15414 C 55.46277 -4.61344 55.95189 -4.21249 56.51922 -3.94962 C 57.08654 -3.68676 57.74536 -3.55699 58.49403 -3.55699 C 59.19278 -3.55699 59.83663 -3.69508 60.42392 -3.97125 C 61.01121 -4.24743 61.5203 -4.65337 61.9512 -5.18742 C 62.19742 -5.49354 62.37544 -5.86454 62.48857 -6.3021 C 62.6017 -6.73965 62.65661 -7.30697 62.65661 -8.00572 L 62.65661 -11.54441 C 62.65661 -12.28642 62.60004 -12.86206 62.48524 -13.26967 C 62.37045 -13.67728 62.18245 -14.04662 61.91959 -14.37936 C 61.51032 -14.91507 61.02285 -15.31269 60.45719 -15.57057 C 59.89154 -15.83011 59.23271 -15.95987 58.47906 -15.95987 C 57.7803 -15.95987 57.13645 -15.82179 56.54916 -15.54561 C 55.96188 -15.26944 55.45278 -14.8635 55.02189 -14.32945 C 54.77566 -14.02333 54.59764 -13.65399 54.48451 -13.21976 C 54.37304 -12.78553 54.31648 -12.22154 54.31648 -11.52778 L 54.31648 -9.0289 C 53.91553 -10.43805 53.08201 -11.72908 51.48819 -12.82047 C 49.39692 -14.25292 46.57362 -14.55571 44.11633 -14.73373 C 40.10182 -15.02487 36.13224 -15.38756 32.17929 -16.12125 C 35.14067 -19.7764 32.43383 -26.4861 27.0501 -24.64938 C 26.92532 -24.60779 26.8072 -24.55288 26.68408 -24.50963 L 23.08883 -24.50963 L 23.08883 -23.06221 C 20.65317 -21.97914 18.28739 -20.75466 15.92161 -19.52186 C 14.93004 -19.22572 13.9285 -18.95786 12.91863 -18.71829 C 12.36462 -22.01075 10.53288 -25.25996 8.56473 -27.82039 C 8.49984 -27.90358 8.4283 -27.97012 8.36176 -28.04832 L 8.36176 -34.96432 L 0 -36.7162 L 2.72847 -45.22269 C 2.93477 -45.86655 7.89592 -61.14597 17.63688 -74.7334 C 23.08217 -82.32986 29.49075 -89.35067 35.144 -95.54629 C 39.09529 -99.8769 44.50897 -105.80799 45.33915 -107.77449 C 49.44683 -117.57867 48.22401 -144.19953 37.02232 -161.98282 L 29.24785 -174.33414 L 142.89519 -174.33414 L 141.12668 -164.81111 C 140.16173 -159.59708 139.59774 -153.6793 139.63434 -150.02915 C 141.72228 -150.65636 144.24114 -151.7261 145.83661 -152.40325 C 146.82154 -152.82083 147.72824 -153.20514 148.51685 -153.51293 C 151.75273 -154.77735 156.64069 -156.45601 161.73827 -156.45601 C 168.55777 -156.45601 173.91323 -153.39813 176.8197 -147.84636 C 180.84752 -140.15343 177.70645 -131.53878 175.41387 -125.24833 C 175.15102 -124.52795 174.8449 -123.68611 174.58036 -122.91582 C 179.73783 -121.20221 183.01366 -116.05139 182.62102 -110.11531 C 182.56446 -109.2635 182.43302 -108.4383 182.23339 -107.64638 C 183.94367 -105.16081 184.80712 -102.20275 184.0568 -98.91029 C 183.76398 -97.63091 183.30315 -96.51956 182.74913 -95.55461 C 185.7388 -94.20701 189.17267 -91.85953 190.81308 -87.65536 C 192.5217 -83.28149 191.74475 -78.41184 188.50719 -73.1845 Z M 88.12785 -2.7684 L 92.0625 -2.7684 L 92.0625 -13.61905 L 90.02114 -13.61905 L 90.02114 -4.37054 L 88.12785 -4.37054 L 88.12785 -2.7684 Z M 24.18354 -70.05009 C 21.75121 -66.6578 19.63998 -63.13575 17.84485 -59.79171 C 19.63831 -63.13575 21.75121 -66.6578 24.18354 -70.05009 C 34.73972 -84.7755 50.11064 -98.32633 52.76924 -104.67002 C 54.26324 -108.23533 55.20157 -113.40944 55.43448 -119.45366 C 55.1999 -113.40944 54.26158 -108.23533 52.76924 -104.67002 C 50.10898 -98.32467 34.73972 -84.7755 24.18354 -70.05009 Z M 43.83683 -166.28182 L 43.83683 -166.28182 L 124.38487 -166.28182 C 124.37156 -166.19365 124.35492 -166.08551 124.34161 -165.99068 C 124.16859 -166.00565 123.99057 -166.0173 123.80756 -166.0173 C 123.12711 -166.0173 122.51986 -165.90583 121.97583 -165.7145 C 120.58997 -165.55979 119.26733 -164.78948 118.38057 -163.16738 C 116.1612 -159.1096 117.53042 -153.61275 118.37558 -149.34369 C 118.53197 -148.55677 118.90797 -147.87299 119.41872 -147.304 C 117.38901 -144.25777 118.74492 -138.9905 123.52473 -138.97553 C 123.87245 -136.69957 125.53282 -134.66321 128.50919 -134.66321 C 133.52191 -134.66321 134.80297 -140.44457 132.35898 -143.40595 C 132.48542 -143.44089 132.6102 -143.47083 132.73664 -143.5091 C 129.9067 -148.49687 133.20748 -166.28182 133.20748 -166.28182 L 43.83683 -166.28182 Z M 151.44661 -146.01297 C 147.84803 -144.60715 141.58919 -141.46775 137.09886 -141.46775 C 135.52 -141.46775 134.15744 -141.85704 133.20914 -142.84528 C 133.2058 -142.84862 133.20415 -142.8536 133.2008 -142.85694 C 133.20415 -142.8536 133.2058 -142.84862 133.20914 -142.84528 C 134.1591 -141.85704 135.52 -141.46775 137.09886 -141.46775 C 141.58919 -141.4694 147.84803 -144.60715 151.44661 -146.01297 C 151.45328 -146.01464 151.45992 -146.01796 151.46659 -146.01963 C 151.45992 -146.01796 151.45328 -146.0163 151.44661 -146.01297 Z M 176.22576 -89.31906 C 171.46924 -90.64669 170.38617 -91.91776 170.47934 -93.43838 C 170.67899 -96.66097 175.41387 -97.22996 176.2058 -100.70542 C 176.89458 -103.72005 171.31618 -106.56498 171.31618 -106.56498 C 175.4721 -107.07407 175.73165 -114.3278 171.81529 -115.34598 C 168.36478 -116.24272 165.93744 -116.24605 165.93744 -121.08575 C 165.93744 -125.92545 173.33425 -137.15044 169.68575 -144.11635 C 167.98712 -147.36223 164.96916 -148.40869 161.7366 -148.40869 C 158.36594 -148.40869 154.77567 -147.27239 152.19695 -146.30245 C 153.86397 -146.92136 155.96024 -147.59516 158.13968 -148.00942 C 158.26944 -147.90128 158.39257 -147.77982 158.51734 -147.6617 C 158.23783 -147.7033 157.94835 -147.73157 157.64057 -147.73157 C 152.41323 -147.73157 151.24364 -141.44777 154.1235 -138.62615 C 153.6976 -138.1104 153.35155 -137.4782 153.12363 -136.70957 C 151.598 -131.56374 150.22214 -126.22825 150.58481 -120.81956 C 150.91756 -115.86839 153.96379 -111.38804 156.13159 -107.0774 C 156.70723 -105.93443 157.4975 -105.20074 158.3809 -104.80145 C 158.326 -104.25576 158.34764 -103.67513 158.47907 -103.0579 C 158.94324 -100.88843 157.96665 -99.51921 157.62393 -97.13346 C 157.22298 -94.33512 157.51412 -91.53345 157.24793 -88.72678 C 157.1348 -87.53724 157.57236 -86.43254 158.30937 -85.54413 C 158.58556 -84.35125 159.33255 -83.23158 160.70677 -82.42968 C 161.6035 -81.90561 162.39043 -81.25511 163.27718 -80.74269 C 162.86626 -79.71119 162.3455 -78.68136 162.01277 -77.85284 C 161.80648 -77.33709 161.56024 -76.84797 161.33065 -76.34719 C 159.4906 -76.15254 157.8036 -75.01291 157.21633 -72.65378 C 156.0717 -68.05531 153.28002 -63.92435 151.21038 -59.7052 C 150.65303 -58.56723 150.52159 -57.45422 150.69628 -56.43936 C 149.65813 -54.0769 149.39693 -52.16531 149.49509 -49.31706 C 149.63817 -45.17944 149.85944 -41.04681 149.88773 -36.90586 C 149.89272 -36.13057 150.04079 -35.45012 150.28868 -34.85285 C 149.87276 -34.14578 149.60657 -33.29729 149.5816 -32.28909 C 149.50176 -29.0299 149.04756 -25.75075 149.94429 -22.54813 C 150.67465 -19.93612 151.8043 -17.47218 152.95226 -15.01988 C 153.78246 -13.24472 155.77057 -12.41453 157.6755 -12.4894 L 157.6755 -12.47276 L 157.97997 -12.47276 L 157.97997 -11.83889 L 167.15859 -9.91565 C 167.15859 -9.91565 167.15859 -47.8713 167.15859 -53.72919 C 167.15859 -59.58708 176.76979 -69.52602 181.66107 -77.42361 C 186.55234 -85.32119 181.42815 -87.86665 176.22576 -89.31906 Z M 59.87157 -13.25969 C 60.1727 -12.87704 60.32243 -12.28476 60.32243 -11.48119 L 60.32243 -7.78612 C 60.32243 -7.44672 60.30746 -7.19384 60.27751 -7.02414 C 60.24757 -6.85444 60.19766 -6.70804 60.12612 -6.5816 C 59.95642 -6.2971 59.73182 -6.0775 59.45066 -5.92277 C 59.16949 -5.76638 58.85172 -5.68985 58.49569 -5.68985 C 57.88345 -5.68985 57.42427 -5.87952 57.11482 -6.25884 C 56.80704 -6.63816 56.65231 -7.20548 56.65231 -7.95914 L 56.65231 -11.54774 C 56.65231 -12.32303 56.80038 -12.89867 57.09818 -13.273 C 57.39599 -13.64733 57.85683 -13.83367 58.47906 -13.83367 C 59.10793 -13.832 59.57211 -13.64234 59.87157 -13.25969 Z " fill="#373b42" />
                                                <path transform="matrix(1,0,0,-1,45.858568,97.60799)" d="M 150.50662 -81.7825 C 150.70127 -85.07496 155.3014 -85.65726 156.0717 -89.20593 C 156.7405 -92.2871 151.31851 -95.19192 151.31851 -95.19192 C 155.35797 -95.71266 155.60919 -103.12278 151.80265 -104.16259 C 148.45029 -105.07929 146.0895 -105.08096 146.0895 -110.02714 C 146.0895 -114.97165 153.27834 -126.43954 149.733 -133.55852 C 149.19562 -134.63825 148.51184 -135.45845 147.73822 -136.10231 C 145.56044 -135.68804 143.46419 -135.01592 141.79549 -134.39536 C 141.54593 -134.30052 141.29471 -134.20735 141.06513 -134.11751 C 141.05847 -134.11585 141.0518 -134.11252 141.04517 -134.10919 C 137.44658 -132.70337 131.18775 -129.56397 126.69741 -129.56397 C 125.11856 -129.56397 123.75599 -129.95328 122.80768 -130.94152 C 122.80435 -130.94484 122.80269 -130.94983 122.79936 -130.95316 C 122.63299 -131.13117 122.4949 -131.37075 122.35682 -131.61032 C 122.35016 -131.60865 122.34351 -131.607 122.33685 -131.60532 C 120.83619 -131.16278 119.36881 -130.85666 118.06114 -130.85666 C 116.52555 -130.85666 115.20291 -131.25428 114.28122 -132.26415 C 111.38971 -135.43018 113.21312 -149.34537 113.98508 -154.37805 L 33.43871 -154.37805 C 36.12059 -150.12064 38.28174 -145.45397 39.98703 -140.62923 C 46.40059 -122.48659 46.28247 -102.10626 42.36945 -92.76625 C 39.71086 -86.4209 24.34159 -72.87172 13.78542 -58.14632 C 11.35309 -54.75403 9.24019 -51.23198 7.44672 -47.88794 C 7.24874 -47.52026 7.05575 -47.15425 6.86609 -46.7899 C 6.65813 -46.39227 6.45516 -45.99798 6.25551 -45.60534 C 5.99597 -45.09459 5.74476 -44.59049 5.50186 -44.0947 C 1.85503 -36.64299 0 -30.86829 0 -30.86829 L 11.08191 -28.54576 L 135.83945 -2.39739 L 144.56223 -.56899 L 147.27904 0 L 147.27904 -.56899 L 147.27904 -41.21151 C 147.27904 -47.19751 156.62073 -57.35273 161.37392 -65.42001 C 166.1271 -73.48896 161.14765 -76.08932 156.09166 -77.57334 C 151.46825 -78.93092 150.41512 -80.23027 150.50662 -81.7825 Z " fill="#a7a9ac" />
                                                <path transform="matrix(1,0,0,-1,11.42663,10.485016)" d="M 81.77917 -36.67128 C 81.80746 -36.83099 81.82243 -37.07056 81.82243 -37.38999 L 81.82243 -40.87378 C 81.82243 -41.63077 81.68102 -42.18977 81.39819 -42.55079 C 81.11536 -42.91181 80.6778 -43.09149 80.08553 -43.09149 C 79.49824 -43.09149 79.06402 -42.91514 78.78451 -42.56244 C 78.50335 -42.20973 78.3636 -41.66737 78.3636 -40.937 L 78.3636 -37.55304 C 78.3636 -36.84264 78.50834 -36.30859 78.79949 -35.95089 C 79.09063 -35.5932 79.52486 -35.41352 80.1005 -35.41352 C 80.4349 -35.41352 80.73603 -35.48672 81.00056 -35.63313 C 81.26509 -35.77953 81.47804 -35.98749 81.63776 -36.25535 C 81.70264 -36.37347 81.75089 -36.51156 81.77917 -36.67128 Z M 125.94043 -58.18791 C 125.78071 -57.92005 125.56776 -57.71209 125.30323 -57.56568 C 125.0387 -57.41928 124.73757 -57.34608 124.40317 -57.34608 C 123.82586 -57.34608 123.39164 -57.52575 123.10215 -57.88345 C 122.81101 -58.24115 122.66626 -58.77519 122.66626 -59.48559 L 122.66626 -62.86956 C 122.66626 -63.60159 122.80602 -64.14229 123.08718 -64.49499 C 123.36835 -64.8477 123.80091 -65.02405 124.38819 -65.02405 C 124.98047 -65.02405 125.41802 -64.84437 125.70085 -64.48335 C 125.98368 -64.12233 126.1251 -63.56332 126.1251 -62.80634 L 126.1251 -59.32255 C 126.1251 -59.00312 126.11012 -58.76355 126.08184 -58.60383 C 126.05522 -58.44578 126.00697 -58.30603 125.94043 -58.18791 Z M 182.01543 -72.03655 L 182.01543 -78.83276 L 32.77822 -110.11032 L 32.39557 -110.19018 L 32.39557 -101.27108 L 21.98413 -101.27108 L 21.98413 -87.69363 L 10.23841 -87.69363 L 10.23841 -72.03821 L 21.98413 -72.03821 L 21.98413 -59.86991 L 36.32689 -59.86991 L 36.32689 -71.08325 L 57.62059 -71.08325 L 57.70377 -71.08325 L 57.70377 -84.93521 L 71.82027 -84.93521 L 71.82027 -71.08325 L 84.90194 -71.08325 L 84.90194 -49.55497 L 71.82027 -49.55497 L 71.82027 -29.0299 L 120.59329 -29.0299 L 120.59329 -40.99024 L 138.87902 -40.99024 L 138.87902 -52.52634 L 155.5909 -52.52634 L 155.5909 -64.75952 L 170.27138 -64.75952 L 170.27138 -72.03821 L 182.01543 -72.03821 L 182.01543 -72.03655 Z M 84.0235 -37.59962 C 84.0235 -36.94079 83.97027 -36.40508 83.86545 -35.99249 C 83.76064 -35.57989 83.59094 -35.23051 83.35969 -34.94269 C 82.95208 -34.43859 82.47294 -34.05594 81.91892 -33.79474 C 81.36491 -33.5352 80.75933 -33.40543 80.1005 -33.40543 C 79.39509 -33.40543 78.77453 -33.52855 78.23882 -33.77644 C 77.70311 -34.02433 77.24226 -34.40199 76.85629 -34.91274 C 76.60839 -35.22718 76.43204 -35.57323 76.3239 -35.95256 C 76.21576 -36.33188 76.16086 -36.87092 76.16086 -37.57134 L 76.16086 -40.92369 C 76.16086 -41.57753 76.2141 -42.10991 76.31891 -42.51918 C 76.42372 -42.92845 76.59342 -43.27783 76.82467 -43.56565 C 77.23228 -44.06975 77.71143 -44.4524 78.26544 -44.7136 C 78.81945 -44.97314 79.42504 -45.10291 80.08386 -45.10291 C 80.79426 -45.10291 81.41649 -44.98146 81.94887 -44.73523 C 82.48125 -44.489 82.9421 -44.11633 83.32808 -43.61057 C 83.57597 -43.29613 83.75232 -42.94675 83.86046 -42.5641 C 83.9686 -42.17979 84.02184 -41.63908 84.02184 -40.93867 L 84.02184 -37.59962 L 84.0235 -37.59962 Z M 32.36229 -64.80943 L 26.01029 -64.80943 L 26.01029 -67.39649 L 29.0665 -67.39649 L 29.0665 -82.32487 L 32.36229 -82.32487 L 32.36229 -64.80943 Z M 51.04398 -78.89432 L 43.48579 -78.89432 L 43.48579 -81.97216 L 47.12098 -81.97216 L 47.12098 -99.73549 L 51.04232 -99.73549 L 51.04232 -78.89432 L 51.04398 -78.89432 Z M 86.69042 -83.22826 C 86.69042 -82.5295 86.63385 -81.96052 86.52238 -81.52463 C 86.41091 -81.08707 86.23123 -80.71607 85.98501 -80.40995 C 85.55411 -79.87424 85.04502 -79.46996 84.45773 -79.19378 C 83.87044 -78.91761 83.22826 -78.77952 82.52784 -78.77952 C 81.77917 -78.77952 81.12201 -78.91095 80.55303 -79.17216 C 79.9857 -79.43502 79.49658 -79.83597 79.08731 -80.37667 C 78.82444 -80.70941 78.63644 -81.07709 78.52165 -81.47804 C 78.40685 -81.879 78.35029 -82.45131 78.35029 -83.19498 L 78.35029 -86.75031 C 78.35029 -87.44407 78.40685 -88.00807 78.51832 -88.44229 C 78.62979 -88.87652 78.80947 -89.24586 79.0557 -89.55198 C 79.48659 -90.08769 79.99569 -90.49197 80.58297 -90.76814 C 81.17026 -91.04432 81.81245 -91.18241 82.51287 -91.18241 C 83.26652 -91.18241 83.92535 -91.05264 84.491 -90.7931 C 85.05666 -90.53356 85.54413 -90.13594 85.9534 -89.60189 C 86.21626 -89.26915 86.40426 -88.89815 86.51905 -88.4922 C 86.63385 -88.0846 86.69042 -87.51062 86.69042 -86.76695 L 86.69042 -83.22826 Z M 102.27762 -46.99121 L 96.1186 -46.99121 L 96.1186 -49.4984 L 99.08165 -49.4984 L 99.08165 -63.97426 L 102.27762 -63.97426 L 102.27762 -46.99121 Z M 116.09631 -77.98926 L 112.16166 -77.98926 L 112.16166 -79.59141 L 114.05495 -79.59141 L 114.05495 -88.83992 L 116.09631 -88.83992 L 116.09631 -77.98926 Z M 128.32784 -59.53218 C 128.32784 -58.87335 128.2746 -58.33764 128.16979 -57.92504 C 128.06497 -57.51245 127.89527 -57.16307 127.66402 -56.87525 C 127.25641 -56.37115 126.77727 -55.9885 126.22326 -55.7273 C 125.66924 -55.46776 125.06366 -55.33799 124.40483 -55.33799 C 123.69942 -55.33799 123.07886 -55.4611 122.54315 -55.70899 C 122.00744 -55.95689 121.54659 -56.33455 121.16062 -56.8453 C 120.91272 -57.15974 120.73637 -57.50579 120.62823 -57.88511 C 120.52009 -58.26444 120.46519 -58.80348 120.46519 -59.50389 L 120.46519 -62.85625 C 120.46519 -63.51008 120.51843 -64.04247 120.62324 -64.45174 C 120.72805 -64.86101 120.89775 -65.21039 121.12901 -65.49821 C 121.53661 -66.00231 122.01576 -66.38496 122.56977 -66.64616 C 123.12378 -66.9057 123.72937 -67.03546 124.38819 -67.03546 C 125.09859 -67.03546 125.72082 -66.91235 126.2532 -66.66779 C 126.78559 -66.42322 127.24643 -66.04889 127.63241 -65.54313 C 127.8803 -65.22869 128.05666 -64.87931 128.1648 -64.49666 C 128.27294 -64.11234 128.32784 -63.57164 128.32784 -62.87122 L 128.32784 -59.53218 Z M 181.71265 -87.69363 L 182.0171 -87.69363 L 182.0171 -87.05976 L 181.71265 -87.12298 L 181.71265 -87.69363 Z M 84.15993 -81.80247 C 83.99023 -81.51797 83.76563 -81.29836 83.48447 -81.14364 C 83.2033 -80.98892 82.88553 -80.91072 82.5295 -80.91072 C 81.91726 -80.91072 81.45808 -81.10038 81.14863 -81.47971 C 80.84085 -81.85903 80.68612 -82.42635 80.68612 -83.18001 L 80.68612 -86.76861 C 80.68612 -87.54389 80.83419 -88.11953 81.13199 -88.49387 C 81.4298 -88.8682 81.89064 -89.05453 82.51287 -89.05453 C 83.14174 -89.05453 83.60592 -88.86321 83.90538 -88.48056 C 84.20651 -88.09791 84.35624 -87.50563 84.35624 -86.70206 L 84.35624 -83.00698 C 84.35624 -82.66759 84.34127 -82.41471 84.31132 -82.24501 C 84.28138 -82.07698 84.23147 -81.92891 84.15993 -81.80247 Z M 58.60716 -27.49763 L 58.60716 -30.07304 L 61.78815 -30.07304 L 61.78815 -27.49763 L 61.78815 -13.16652 L 55.65742 -13.16652 L 55.65742 -15.66374 L 58.60716 -15.66374 L 58.60716 -27.49763 Z M 0 -21.64474 L 2.14118 -21.64474 L 2.14118 -32.10276 L 4.4504 -32.10276 L 4.4504 -19.83297 L 0 -19.83297 L 0 -21.64474 Z M 12.69902 -12.26979 L 15.00657 -12.26979 L 15.00657 0 L 10.55784 0 L 10.55784 -1.81177 L 12.69902 -1.81177 L 12.69902 -12.26979 Z M 42.64396 -49.5533 L 42.64396 -52.52467 L 42.64396 -58.54061 L 46.84646 -58.54061 L 46.84646 -52.52467 L 46.84646 -49.5533 L 46.84646 -36.21209 L 38.74924 -36.21209 L 38.74924 -39.50955 L 42.64396 -39.50955 L 42.64396 -49.5533 Z M 12.46777 -60.50877 C 11.53277 -60.50877 10.67097 -60.3241 9.88571 -59.95476 C 9.10044 -59.58542 8.41832 -59.04305 7.84102 -58.32599 C 7.51161 -57.91672 7.27203 -57.42094 7.1223 -56.84031 C 6.97257 -56.25968 6.8977 -55.50436 6.8977 -54.57601 L 6.8977 -49.81783 C 6.8977 -48.82294 6.97423 -48.05764 7.12729 -47.52026 C 7.28035 -46.98289 7.53323 -46.4921 7.88427 -46.04622 C 8.43163 -45.32252 9.08713 -44.78514 9.84744 -44.4341 C 10.60775 -44.08306 11.48785 -43.90837 12.4894 -43.90837 C 13.4244 -43.90837 14.28619 -44.09304 15.07146 -44.46238 C 15.85672 -44.83172 16.53884 -45.37409 17.11615 -46.09114 C 17.44556 -46.50042 17.68513 -46.99786 17.83486 -47.58182 C 17.9846 -48.16578 18.05946 -48.92609 18.05946 -49.86275 L 18.05946 -54.59931 C 18.05946 -55.5942 17.98293 -56.36283 17.82987 -56.90686 C 17.67681 -57.45089 17.42393 -57.94667 17.07289 -58.39254 C 16.52387 -59.1096 15.8717 -59.64032 15.11638 -59.98803 C 14.35939 -60.33408 13.47597 -60.50877 12.46777 -60.50877 Z M 10.6194 -56.90686 C 11.01702 -57.40763 11.63425 -57.65719 12.4661 -57.65719 C 13.30627 -57.65719 13.9285 -57.40098 14.32945 -56.89022 C 14.73206 -56.3778 14.93171 -55.58588 14.93171 -54.51113 L 14.93171 -49.56661 C 14.93171 -49.11409 14.91174 -48.77303 14.87181 -48.54677 C 14.83189 -48.3205 14.76367 -48.12252 14.66884 -47.95449 C 14.44258 -47.57517 14.14145 -47.28069 13.76379 -47.07273 C 13.38779 -46.86477 12.96189 -46.75995 12.48607 -46.75995 C 11.66753 -46.75995 11.05196 -47.0145 10.63936 -47.52193 C 10.22676 -48.02936 10.02047 -48.788 10.02047 -49.7962 L 10.02047 -54.59764 C 10.02213 -55.63746 10.22177 -56.40608 10.6194 -56.90686 Z M 61.55025 -51.36674 C 62.39041 -50.9791 63.36368 -50.78611 64.47004 -50.78611 C 65.5032 -50.78611 66.45483 -50.99074 67.32328 -51.39835 C 68.19174 -51.80595 68.94373 -52.40489 69.58259 -53.19681 C 69.94528 -53.64933 70.2098 -54.19835 70.37617 -54.84387 C 70.54254 -55.48939 70.62407 -56.32955 70.62407 -57.36271 L 70.62407 -62.59505 C 70.62407 -63.69309 70.53922 -64.54324 70.36952 -65.1455 C 70.19982 -65.74776 69.92198 -66.29345 69.53434 -66.78591 C 68.92875 -67.57783 68.20837 -68.16512 67.37153 -68.54777 C 66.53635 -68.93208 65.56143 -69.12341 64.44675 -69.12341 C 63.41359 -69.12341 62.46195 -68.91877 61.5935 -68.51117 C 60.72505 -68.10356 59.97306 -67.50296 59.3342 -66.71271 C 58.97151 -66.26018 58.70698 -65.71282 58.54061 -65.07063 C 58.37424 -64.42845 58.29272 -63.59493 58.29272 -62.57009 L 58.29272 -57.3128 C 58.29272 -56.21476 58.37757 -55.36794 58.54727 -54.77566 C 58.71696 -54.18172 58.9948 -53.63935 59.38244 -53.1469 C 59.98803 -52.34832 60.71008 -51.75438 61.55025 -51.36674 Z M 61.7449 -62.59505 C 61.7449 -63.74134 61.96451 -64.59149 62.40539 -65.1455 C 62.84627 -65.69785 63.52506 -65.97569 64.44675 -65.97569 C 65.37509 -65.97569 66.0622 -65.69286 66.50641 -65.1272 C 66.95062 -64.56154 67.17189 -63.68644 67.17189 -62.49855 L 67.17189 -57.03496 C 67.17189 -56.53419 67.15026 -56.15819 67.10534 -55.90864 C 67.06042 -55.65908 66.98555 -55.43948 66.88074 -55.2548 C 66.63119 -54.83555 66.29678 -54.50947 65.88086 -54.27988 C 65.46493 -54.05029 64.9941 -53.93549 64.47004 -53.93549 C 63.56499 -53.93549 62.88453 -54.21666 62.42868 -54.77732 C 61.97283 -55.33799 61.7449 -56.17649 61.7449 -57.29117 L 61.7449 -62.59505 Z M 24.29335 -27.50262 C 24.18022 -27.06341 24.12365 -26.49276 24.12365 -25.79068 L 24.12365 -22.19376 C 24.12365 -21.44177 24.18188 -20.86446 24.29834 -20.45852 C 24.4148 -20.05258 24.60446 -19.68157 24.87065 -19.34384 C 25.28491 -18.79648 25.77903 -18.39054 26.35467 -18.12601 C 26.92865 -17.86148 27.59579 -17.72839 28.35111 -17.72839 C 29.05818 -17.72839 29.70869 -17.86814 30.30263 -18.14764 C 30.89657 -18.42714 31.41232 -18.83641 31.84821 -19.37878 C 32.0961 -19.68823 32.27744 -20.06422 32.39058 -20.5051 C 32.50371 -20.94765 32.56027 -21.52162 32.56027 -22.2287 L 32.56027 -25.80898 C 32.56027 -26.56097 32.50204 -27.1416 32.38558 -27.55254 C 32.26913 -27.96347 32.07946 -28.3378 31.81327 -28.67553 C 31.39901 -29.21624 30.90655 -29.61885 30.33424 -29.88172 C 29.76193 -30.14458 29.09479 -30.27601 28.33281 -30.27601 C 27.62574 -30.27601 26.97523 -30.13626 26.38129 -29.85676 C 25.78735 -29.57726 25.2716 -29.16799 24.83571 -28.62562 C 24.58616 -28.31617 24.40648 -27.94184 24.29335 -27.50262 Z M 26.48444 -25.80898 C 26.48444 -26.59424 26.63417 -27.17488 26.9353 -27.55254 C 27.23643 -27.9302 27.70227 -28.11986 28.33115 -28.11986 C 28.96668 -28.11986 29.43584 -27.92687 29.7403 -27.53923 C 30.04476 -27.15325 30.19616 -26.55265 30.19616 -25.74077 L 30.19616 -22.0041 C 30.19616 -21.66137 30.18118 -21.40516 30.15124 -21.2338 C 30.12129 -21.06244 30.06971 -20.91271 29.99817 -20.78627 C 29.82681 -20.49845 29.59889 -20.27718 29.31439 -20.11912 C 29.0299 -19.96107 28.70881 -19.88288 28.34945 -19.88288 C 27.73055 -19.88288 27.26472 -20.0742 26.9536 -20.45852 C 26.64083 -20.84283 26.4861 -21.41515 26.4861 -22.17878 L 26.4861 -25.80898 L 26.48444 -25.80898 Z " fill="#6b6c6f" />
                                            </g>
                                        </g>
                                    </g>
                                    <clipPath id="cp6">
                                        <path transform="matrix(1,0,0,-1,245.15007,213.68604)" d="M 0 0 L 560.31497 0 L 560.31497 -45.61681 L 0 -45.61681 L 0 0 Z " fill-rule="evenodd" />
                                    </clipPath>
                                    <g clip-path="url(#cp6)">
                                        <g>
                                            <clipPath id="cp7">
                                                <path transform="matrix(1,0,0,-1,245.15007,259.30287)" d="M 0 -45.61681 L 840 -45.61681 L 840 45.61681 L 0 45.61681 Z " fill-rule="evenodd" />
                                            </clipPath>
                                            <g clip-path="url(#cp7)">
                                                <path transform="matrix(1,0,0,-1,245.15007,227.35442)" d="M 6.05631 -.33337 L 6.77862 -3.556 L 6.77862 -31.67063 L 0 -31.67063 L 0 -.33337 L 6.05631 -.33337 Z M 32.28181 0 C 33.54123 0 34.72656 -.25929 35.83781 -.77788 C 36.94906 -1.25942 37.91215 -1.96321 38.72706 -2.88925 C 39.57902 -3.81529 40.22725 -4.92654 40.67175 -6.223 C 41.15329 -7.48242 41.39406 -8.85296 41.39406 -10.33463 L 41.39406 -31.67063 L 34.72656 -31.67063 L 34.72656 -14.61294 C 34.72656 -13.35352 34.70804 -12.16819 34.671 -11.05694 C 34.671 -9.90865 34.55987 -8.89 34.33762 -8.001 C 34.11537 -7.112 33.74496 -6.42673 33.22637 -5.94519 C 32.74483 -5.4266 31.98548 -5.16731 30.94831 -5.16731 C 30.68902 -5.16731 30.1334 -5.22288 29.28144 -5.334 C 28.42948 -5.44513 27.44787 -5.75998 26.33662 -6.27856 L 26.33662 -1.88913 C 27.33675 -1.29646 28.3554 -.83344 29.39256 -.50006 C 30.42973 -.16669 31.39281 0 32.28181 0 Z M 22.6695 -4.27831 C 23.114 -4.94506 23.42885 -5.66738 23.61406 -6.44525 C 23.83631 -7.18608 23.96596 -7.96396 24.003 -8.77888 C 24.07708 -9.59379 24.0956 -10.44575 24.05856 -11.33475 C 24.05856 -12.18671 24.05856 -13.09423 24.05856 -14.05731 L 24.05856 -31.67063 L 17.3355 -31.67063 L 17.3355 -14.61294 C 17.3355 -13.35352 17.3355 -12.16819 17.3355 -11.05694 C 17.3355 -9.90865 17.22438 -8.89 17.00213 -8.001 C 16.77988 -7.112 16.40946 -6.42673 15.89088 -5.94519 C 15.37229 -5.4266 14.61294 -5.16731 13.61281 -5.16731 C 13.16831 -5.16731 12.50156 -5.25992 11.61256 -5.44513 C 10.7606 -5.59329 9.90865 -5.8711 9.05669 -6.27856 L 9.05669 -1.88913 C 9.94569 -1.37054 10.89025 -.94456 11.89038 -.61119 C 12.92754 -.27781 13.94619 -.11113 14.94631 -.11113 C 16.65023 -.11113 18.07633 -.46302 19.22463 -1.16681 C 20.40996 -1.87061 21.55825 -2.90777 22.6695 -4.27831 Z " fill="#231f20" />
                                                <path transform="matrix(1,0,0,-1,296.9048,227.46555)" d="M 6.27856 -22.11387 C 6.27856 -23.78075 6.61194 -25.02165 7.27869 -25.83656 C 7.98248 -26.65148 8.9826 -27.13302 10.27906 -27.28119 L 10.27906 -31.78175 C 10.1309 -31.81879 9.89013 -31.83731 9.55675 -31.83731 C 8.29733 -31.83731 7.07496 -31.67062 5.88963 -31.33725 C 4.74133 -31.00387 3.72269 -30.46677 2.83369 -29.72594 C 1.94469 -28.9851 1.2409 -28.0035 .72231 -26.78112 C .24077 -25.55875 0 -24.05856 0 -22.28056 C 0 -20.57665 .3519 -19.1135 1.05569 -17.89112 C 1.79652 -16.63171 2.72256 -15.61306 3.83381 -14.83519 C 4.9821 -14.02027 6.27856 -13.4276 7.72319 -13.05719 C 9.16781 -12.64973 10.63096 -12.446 12.11263 -12.446 L 14.55737 -12.446 L 14.55737 -16.39094 L 13.335 -16.39094 C 12.59417 -16.39094 11.81629 -16.46502 11.00137 -16.61319 C 10.18646 -16.76135 9.4271 -17.03917 8.72331 -17.44662 C 8.01952 -17.85408 7.42685 -18.44675 6.94531 -19.22462 C 6.50081 -19.96546 6.27856 -20.92854 6.27856 -22.11387 Z M 23.5585 -22.28056 C 23.5585 -22.5769 23.57702 -23.0214 23.61406 -23.61406 C 23.65111 -24.16969 23.72519 -24.74383 23.83631 -25.3365 C 23.94744 -25.92917 24.11413 -26.46627 24.33638 -26.94781 C 24.59567 -27.42935 24.92904 -27.74421 25.3365 -27.89237 L 23.5585 -31.61506 C 23.07696 -31.61506 22.55838 -31.50394 22.00275 -31.28169 C 21.48417 -31.05944 20.96558 -30.74458 20.447 -30.33712 C 19.96546 -29.92967 19.53948 -29.48517 19.16906 -29.00362 C 18.83569 -28.48504 18.5764 -27.92942 18.39119 -27.33675 C 18.02077 -28.26279 17.27994 -29.09623 16.16869 -29.83706 C 15.09448 -30.54085 13.89062 -31.05944 12.55713 -31.39281 L 12.55713 -27.17006 C 13.44613 -26.98485 14.24252 -26.63296 14.94631 -26.11437 C 15.68715 -25.55875 16.31685 -24.91052 16.83544 -24.16969 L 16.83544 -12.446 C 16.83544 -10.63096 16.74283 -9.18633 16.55763 -8.11212 C 16.37242 -7.03792 16.05756 -6.26004 15.61306 -5.7785 C 15.16856 -5.25992 14.61294 -4.94506 13.94619 -4.83394 C 13.31648 -4.68577 12.55713 -4.61169 11.66813 -4.61169 C 10.85321 -4.61169 10.07533 -4.72281 9.3345 -4.94506 C 8.63071 -5.13027 7.96396 -5.37104 7.33425 -5.66737 C 6.74158 -5.92667 6.20448 -6.223 5.72294 -6.55637 C 5.27844 -6.88975 4.94506 -7.14904 4.72281 -7.33425 L 2.2225 -3.50044 C 2.59292 -3.09298 3.14854 -2.68552 3.88937 -2.27806 C 4.63021 -1.83356 5.48217 -1.44462 6.44525 -1.11125 C 7.40833 -.77787 8.4455 -.51858 9.55675 -.33337 C 10.70504 -.11112 11.89038 0 13.11275 0 C 14.224 0 15.29821 -.11112 16.33537 -.33337 C 17.40958 -.55562 18.37267 -.92604 19.22463 -1.44463 C 20.11363 -1.96321 20.87298 -2.667 21.50269 -3.556 C 22.16944 -4.40796 22.63246 -5.48217 22.89175 -6.77862 C 23.15104 -8.07508 23.31773 -9.39006 23.39181 -10.72356 C 23.50294 -12.02002 23.5585 -13.31648 23.5585 -14.61294 L 23.5585 -21.83606 L 23.5585 -22.28056 Z " fill="#231f20" />
                                                <path transform="matrix(1,0,0,-1,331.9663,227.13217)" d="M 0 -9.50119 C 0 -8.0936 .25929 -6.83419 .77788 -5.72294 C 1.29646 -4.57465 2.01877 -3.61156 2.94481 -2.83369 C 3.87085 -2.01877 4.90802 -1.38906 6.05631 -.94456 C 7.24165 -.46302 8.46402 -.16669 9.72344 -.05556 L 9.72344 -5.61181 C 8.76035 -5.79702 8.001 -6.18596 7.44538 -6.77862 C 6.92679 -7.37129 6.6675 -8.20473 6.6675 -9.27894 C 6.6675 -10.16794 6.94531 -10.89025 7.50094 -11.44587 C 8.0936 -11.96446 8.83444 -12.42748 9.72344 -12.83494 L 9.72344 -18.78012 C 9.09373 -18.59492 8.4455 -18.39119 7.77875 -18.16894 C 7.14904 -17.90965 6.51933 -17.63183 5.88963 -17.3355 C 3.92642 -16.29833 2.44475 -15.2056 1.44463 -14.05731 C .48154 -12.90902 0 -11.39031 0 -9.50119 Z M 18.55788 -7.16756 C 17.55775 -6.64898 16.48354 -6.26004 15.33525 -6.00075 C 14.224 -5.74146 13.11275 -5.57477 12.0015 -5.50069 L 12.0015 0 C 13.66838 -.07408 15.2056 -.31485 16.61319 -.72231 C 18.02077 -1.09273 19.39131 -1.70392 20.72481 -2.55587 L 18.55788 -7.16756 Z M 2.94481 -24.892 C 3.68565 -25.41058 4.55613 -25.89212 5.55625 -26.33662 C 6.59342 -26.78112 7.88988 -27.00337 9.44563 -27.00337 L 9.72344 -27.00337 L 9.72344 -32.17069 C 8.7974 -32.17069 7.94544 -32.13365 7.16756 -32.05956 C 6.38969 -32.02252 5.61181 -31.9114 4.83394 -31.72619 C 4.0931 -31.50394 3.33375 -31.2076 2.55588 -30.83719 C 1.778 -30.46677 .96308 -29.98523 .11113 -29.39256 L 2.94481 -24.892 Z M 12.0015 -13.72394 C 13.11275 -14.09435 14.24252 -14.50181 15.39081 -14.94631 C 16.5391 -15.39081 17.57627 -15.94644 18.50231 -16.61319 C 19.4654 -17.27994 20.24327 -18.11337 20.83594 -19.1135 C 21.46565 -20.07658 21.7805 -21.29896 21.7805 -22.78062 C 21.7805 -24.22525 21.52121 -25.48467 21.00263 -26.55887 C 20.48404 -27.63308 19.78025 -28.55912 18.89125 -29.337 C 18.03929 -30.11487 17.02065 -30.72606 15.83531 -31.17056 C 14.64998 -31.61506 13.37204 -31.91139 12.0015 -32.05956 L 12.0015 -26.78112 C 13.26092 -26.55887 14.224 -26.16994 14.89075 -25.61431 C 15.59454 -25.02164 15.94644 -24.24377 15.94644 -23.28069 C 15.94644 -22.3176 15.5575 -21.57677 14.77963 -21.05819 C 14.03879 -20.50256 13.11275 -20.02102 12.0015 -19.61356 L 12.0015 -13.72394 Z " fill="#231f20" />
                                                <path transform="matrix(1,0,0,-1,362.20613,218.79779)" d="M 10.83469 -30.72606 C 10.83469 -31.98548 11.00137 -32.96708 11.33475 -33.67088 C 11.66812 -34.37467 12.13115 -34.91177 12.72381 -35.28219 C 13.35352 -35.6526 14.03879 -35.89338 14.77963 -36.0045 C 15.5575 -36.07858 16.37242 -36.11563 17.22437 -36.11563 L 17.22437 -40.22725 C 16.74283 -40.30133 16.26129 -40.3569 15.77975 -40.39394 C 15.37229 -40.43098 14.87223 -40.4495 14.27956 -40.4495 C 13.72394 -40.48654 13.16831 -40.50506 12.61269 -40.50506 C 12.05706 -40.50506 11.48292 -40.48654 10.89025 -40.4495 C 10.33462 -40.41246 9.85308 -40.3569 9.44562 -40.28281 C 8.18621 -40.06056 7.2046 -39.52346 6.50081 -38.6715 C 5.79702 -37.7825 5.25992 -36.81942 4.8895 -35.78225 C 4.55612 -34.70804 4.33387 -33.67088 4.22275 -32.67075 C 4.14867 -31.67063 4.11163 -30.89275 4.11163 -30.33713 L 4.11163 -13.44613 L 0 -13.44613 L 0 -8.89 L 4.11163 -8.89 L 4.11163 0 L 10.83469 0 L 10.83469 -8.89 L 15.83531 -8.89 L 15.83531 -13.44613 L 10.83469 -13.44613 L 10.83469 -30.72606 Z " fill="#231f20" />
                                                <path transform="matrix(1,0,0,-1,388.1565,227.35442)" d="M 15.33525 -.05556 C 17.3355 -.24077 19.13202 -.77788 20.72481 -1.66688 C 22.35465 -2.55588 23.74371 -3.70417 24.892 -5.11175 C 26.04029 -6.51933 26.91077 -8.13065 27.50344 -9.94569 C 28.13315 -11.76073 28.448 -13.64985 28.448 -15.61306 C 28.448 -16.50206 28.39244 -17.39106 28.28131 -18.28006 L 9.22337 -18.28006 L 9.22337 -13.39056 L 22.05831 -13.39056 C 22.05831 -12.42748 21.89163 -11.50144 21.55825 -10.61244 C 21.26192 -9.72344 20.7989 -8.90852 20.16919 -8.16769 C 19.57652 -7.38981 18.87273 -6.74158 18.05781 -6.223 C 17.2429 -5.70442 16.33537 -5.38956 15.33525 -5.27844 L 15.33525 -.05556 Z M 15.113 -26.44775 C 15.52046 -26.44775 16.02052 -26.41071 16.61319 -26.33663 C 17.2429 -26.2255 17.89113 -26.05881 18.55787 -25.83656 C 19.26167 -25.57727 19.94694 -25.26242 20.61369 -24.892 C 21.31748 -24.52158 21.92867 -24.07708 22.44725 -23.5585 L 24.892 -27.28119 C 23.66962 -28.7999 22.24352 -29.94819 20.61369 -30.72606 C 18.98385 -31.50394 16.90952 -31.89288 14.39069 -31.89288 C 12.3534 -31.89288 10.44575 -31.48542 8.66775 -30.6705 C 6.88975 -29.81854 5.37104 -28.67025 4.11163 -27.22563 C 2.85221 -25.781 1.85208 -24.0956 1.11125 -22.16944 C .37042 -20.24327 0 -18.16894 0 -15.94644 C 0 -13.83506 .33338 -11.83481 1.00013 -9.94569 C 1.70392 -8.05656 2.64848 -6.40821 3.83381 -5.00063 C 5.01915 -3.556 6.38969 -2.38919 7.94544 -1.50019 C 9.53823 -.61119 11.24215 -.11112 13.05719 0 L 13.05719 -5.334 C 11.68665 -5.59329 10.55687 -6.14892 9.66787 -7.00088 C 8.77887 -7.85283 8.07508 -8.83444 7.5565 -9.94569 C 7.07496 -11.0199 6.72306 -12.13115 6.50081 -13.27944 C 6.3156 -14.42773 6.223 -15.40933 6.223 -16.22425 C 6.223 -17.66888 6.38969 -19.0209 6.72306 -20.28031 C 7.09348 -21.50269 7.6491 -22.5769 8.38994 -23.50294 C 9.13077 -24.39194 10.03829 -25.11425 11.1125 -25.66988 C 12.22375 -26.18846 13.55725 -26.44775 15.113 -26.44775 Z " fill="#231f20" />
                                                <path transform="matrix(1,0,0,-1,427.46113,227.46555)" d="M 6.00075 -.22225 L 6.72306 -3.44487 L 6.72306 -20.447 L 6.72306 -20.55812 L 6.72306 -31.5595 L 0 -31.5595 L 0 -.22225 L 6.00075 -.22225 Z M 9.00113 -1.61131 C 9.92717 -1.09273 11.03842 -.70379 12.33487 -.4445 C 13.63133 -.14817 15.39081 0 17.61331 0 L 17.61331 -7.00087 C 16.57615 -6.70454 15.31673 -6.53785 13.83506 -6.50081 C 13.02015 -6.50081 12.18671 -6.5749 11.33475 -6.72306 C 10.51983 -6.83419 9.74196 -7.0194 9.00113 -7.27869 L 9.00113 -1.61131 Z " fill="#231f20" />
                                                <path transform="matrix(1,0,0,-1,453.8771,227.35442)" d="M 6.05631 -.33337 L 6.77862 -3.556 L 6.77862 -31.67063 L 0 -31.67063 L 0 -.33337 L 6.05631 -.33337 Z M 32.28181 0 C 33.54123 0 34.72656 -.25929 35.83781 -.77788 C 36.94906 -1.25942 37.91215 -1.96321 38.72706 -2.88925 C 39.57902 -3.81529 40.22725 -4.92654 40.67175 -6.223 C 41.15329 -7.48242 41.39406 -8.85296 41.39406 -10.33463 L 41.39406 -31.67063 L 34.72656 -31.67063 L 34.72656 -14.61294 C 34.72656 -13.35352 34.70804 -12.16819 34.671 -11.05694 C 34.671 -9.90865 34.55987 -8.89 34.33762 -8.001 C 34.11537 -7.112 33.74496 -6.42673 33.22637 -5.94519 C 32.74483 -5.4266 31.98548 -5.16731 30.94831 -5.16731 C 30.68902 -5.16731 30.1334 -5.22288 29.28144 -5.334 C 28.42948 -5.44513 27.44787 -5.75998 26.33662 -6.27856 L 26.33662 -1.88913 C 27.33675 -1.29646 28.3554 -.83344 29.39256 -.50006 C 30.42973 -.16669 31.39281 0 32.28181 0 Z M 22.6695 -4.27831 C 23.114 -4.94506 23.42885 -5.66738 23.61406 -6.44525 C 23.83631 -7.18608 23.96596 -7.96396 24.003 -8.77888 C 24.07708 -9.59379 24.0956 -10.44575 24.05856 -11.33475 C 24.05856 -12.18671 24.05856 -13.09423 24.05856 -14.05731 L 24.05856 -31.67063 L 17.3355 -31.67063 L 17.3355 -14.61294 C 17.3355 -13.35352 17.3355 -12.16819 17.3355 -11.05694 C 17.3355 -9.90865 17.22438 -8.89 17.00213 -8.001 C 16.77988 -7.112 16.40946 -6.42673 15.89088 -5.94519 C 15.37229 -5.4266 14.61294 -5.16731 13.61281 -5.16731 C 13.16831 -5.16731 12.50156 -5.25992 11.61256 -5.44513 C 10.7606 -5.59329 9.90865 -5.8711 9.05669 -6.27856 L 9.05669 -1.88913 C 9.94569 -1.37054 10.89025 -.94456 11.89038 -.61119 C 12.92754 -.27781 13.94619 -.11113 14.94631 -.11113 C 16.65023 -.11113 18.07633 -.46302 19.22463 -1.16681 C 20.40996 -1.87061 21.55825 -2.90777 22.6695 -4.27831 Z " fill="#231f20" />
                                                <path transform="matrix(1,0,0,-1,505.87037,213.68605)" d="M 7.33425 -45.339 L .55562 -45.339 L .55562 -14.00175 L 7.33425 -14.00175 L 7.33425 -45.339 Z M 7.94544 -4.0005 C 7.94544 -5.11175 7.5565 -6.05631 6.77862 -6.83419 C 6.00075 -7.57502 5.05619 -7.94544 3.94494 -7.94544 C 2.83369 -7.94544 1.88912 -7.5565 1.11125 -6.77863 C .37042 -6.00075 0 -5.07471 0 -4.0005 C 0 -2.88925 .38894 -1.94469 1.16681 -1.16681 C 1.94469 -.38894 2.87073 0 3.94494 0 C 5.05619 0 6.00075 -.38894 6.77862 -1.16681 C 7.5565 -1.94469 7.94544 -2.88925 7.94544 -4.0005 Z " fill="#231f20" />
                                                <path transform="matrix(1,0,0,-1,524.28189,227.35442)" d="M 6.00075 -.33337 L 6.72306 -3.50044 L 6.72306 -31.67063 L 0 -31.67063 L 0 -.33337 L 6.00075 -.33337 Z M 23.33625 -3.77825 C 23.96596 -4.40796 24.4475 -5.14879 24.78087 -6.00075 C 25.15129 -6.81567 25.41058 -7.68615 25.55875 -8.61219 C 25.74396 -9.50119 25.85508 -10.40871 25.89213 -11.33475 C 25.92917 -12.26079 25.94769 -13.16831 25.94769 -14.05731 L 25.94769 -30.55938 L 25.94769 -31.67063 L 19.16906 -31.67063 L 19.16906 -14.61294 C 19.16906 -13.35352 19.1135 -12.14967 19.00237 -11.00138 C 18.89125 -9.85308 18.63196 -8.83444 18.2245 -7.94544 C 17.81704 -7.05644 17.26142 -6.37117 16.55763 -5.88963 C 15.85383 -5.37104 14.87223 -5.11175 13.61281 -5.11175 C 13.09423 -5.11175 12.39044 -5.20435 11.50144 -5.38956 C 10.64948 -5.53773 9.81604 -5.79702 9.00113 -6.16744 L 9.00113 -1.88913 C 10.00125 -1.37054 11.07546 -.92604 12.22375 -.55563 C 13.40908 -.18521 14.55738 0 15.66863 0 C 17.3355 0 18.74308 -.3519 19.89137 -1.05569 C 21.03967 -1.72244 22.18796 -2.62996 23.33625 -3.77825 Z " fill="#231f20" />
                                                <path transform="matrix(1,0,0,-1,559.1177,215.85298)" d="M 28.11463 0 L 28.11463 -43.17206 L 21.72494 -43.17206 L 21.336 -39.44937 L 21.336 0 L 28.11463 0 Z M 0 -27.05894 C 0 -24.16969 .38894 -21.74346 1.16681 -19.78025 C 1.98173 -17.81704 3.0189 -16.22425 4.27831 -15.00187 C 5.53773 -13.7795 6.92679 -12.90902 8.4455 -12.39044 C 10.00125 -11.83481 11.51996 -11.557 13.00163 -11.557 C 14.14992 -11.557 15.24265 -11.68665 16.27981 -11.94594 C 17.31698 -12.20523 18.24302 -12.57565 19.05794 -13.05719 L 19.05794 -18.94681 C 18.42823 -18.28006 17.72444 -17.74296 16.94656 -17.3355 C 16.16869 -16.92804 15.29821 -16.72431 14.33513 -16.72431 C 13.18683 -16.72431 12.16819 -17.02065 11.27919 -17.61331 C 10.39019 -18.16894 9.63083 -18.94681 9.00113 -19.94694 C 8.40846 -20.94706 7.94544 -22.09535 7.61206 -23.39181 C 7.27869 -24.68827 7.112 -26.07733 7.112 -27.559 C 7.112 -29.04067 7.29721 -30.42973 7.66763 -31.72619 C 8.03804 -32.9856 8.5381 -34.09685 9.16781 -35.05994 C 9.79752 -36.02302 10.55688 -36.78237 11.44588 -37.338 C 12.37192 -37.89362 13.37204 -38.17144 14.44625 -38.17144 C 16.26129 -38.17144 17.79852 -37.44912 19.05794 -36.0045 L 19.05794 -41.783 C 18.16894 -42.26454 17.13177 -42.672 15.94644 -43.00537 C 14.79815 -43.30171 13.57577 -43.44987 12.27931 -43.44987 C 10.79765 -43.44987 9.3345 -43.19058 7.88988 -42.672 C 6.48229 -42.11637 5.22288 -41.22737 4.11163 -40.005 C 2.70404 -38.41221 1.66688 -36.449 1.00013 -34.11537 C .33338 -31.74471 0 -29.39256 0 -27.05894 Z " fill="#231f20" />
                                                <path transform="matrix(1,0,0,-1,598.3767,227.68779)" d="M 0 0 L 23.83631 0 L 23.83631 -5.38956 L 7.72319 -25.05869 L 6.61194 -25.94769 L 23.83631 -25.94769 L 23.83631 -31.33725 L 0 -31.33725 L 0 -25.94769 L 16.11312 -6.27856 L 17.22437 -5.38956 L 0 -5.38956 L 0 0 Z " fill="#231f20" />
                                                <path transform="matrix(1,0,0,-1,633.3921,215.85298)" d="M 0 0 L 6.72306 0 L 6.72306 -43.17206 L 0 -43.17206 L 0 0 Z M 23.33625 -15.27969 C 23.96596 -15.9094 24.4475 -16.65023 24.78087 -17.50219 C 25.15129 -18.3171 25.41058 -19.18758 25.55875 -20.11362 C 25.74396 -21.00262 25.85508 -21.91015 25.89213 -22.83619 C 25.92917 -23.76223 25.94769 -24.66975 25.94769 -25.55875 L 25.94769 -42.06081 L 25.94769 -43.17206 L 19.16906 -43.17206 L 19.16906 -26.11437 C 19.16906 -24.85496 19.1135 -23.6511 19.00237 -22.50281 C 18.89125 -21.35452 18.63196 -20.33587 18.2245 -19.44687 C 17.81704 -18.55787 17.26142 -17.8726 16.55763 -17.39106 C 15.85383 -16.87248 14.87223 -16.61319 13.61281 -16.61319 C 13.09423 -16.61319 12.39044 -16.70579 11.50144 -16.891 C 10.64948 -17.03917 9.81604 -17.29846 9.00113 -17.66887 L 9.00113 -13.39056 C 10.00125 -12.87198 11.07546 -12.42748 12.22375 -12.05706 C 13.40908 -11.68665 14.55737 -11.50144 15.66863 -11.50144 C 17.3355 -11.50144 18.74308 -11.85333 19.89137 -12.55712 C 21.03967 -13.22388 22.18796 -14.1314 23.33625 -15.27969 Z " fill="#231f20" />
                                                <path transform="matrix(1,0,0,-1,665.9179,251.30185)" d="M 7.94544 -3.94494 C 7.94544 -5.05619 7.5565 -6.00075 6.77863 -6.77862 C 6.00075 -7.5565 5.05619 -7.94544 3.94494 -7.94544 C 2.83369 -7.94544 1.88913 -7.5565 1.11125 -6.77862 C .37042 -6.00075 0 -5.05619 0 -3.94494 C 0 -2.83369 .38894 -1.90765 1.16681 -1.16681 C 1.94469 -.38894 2.87073 0 3.94494 0 C 5.05619 0 6.00075 -.38894 6.77863 -1.16681 C 7.5565 -1.90765 7.94544 -2.83369 7.94544 -3.94494 Z " fill="#231f20" />
                                                <path transform="matrix(1,0,0,-1,680.1247,218.79779)" d="M 10.83469 -30.72606 C 10.83469 -31.98548 11.00137 -32.96708 11.33475 -33.67088 C 11.66812 -34.37467 12.13115 -34.91177 12.72381 -35.28219 C 13.35352 -35.6526 14.03879 -35.89338 14.77963 -36.0045 C 15.5575 -36.07858 16.37242 -36.11563 17.22437 -36.11563 L 17.22437 -40.22725 C 16.74283 -40.30133 16.26129 -40.3569 15.77975 -40.39394 C 15.37229 -40.43098 14.87223 -40.4495 14.27956 -40.4495 C 13.72394 -40.48654 13.16831 -40.50506 12.61269 -40.50506 C 12.05706 -40.50506 11.48292 -40.48654 10.89025 -40.4495 C 10.33462 -40.41246 9.85308 -40.3569 9.44562 -40.28281 C 8.18621 -40.06056 7.2046 -39.52346 6.50081 -38.6715 C 5.79702 -37.7825 5.25992 -36.81942 4.8895 -35.78225 C 4.55612 -34.70804 4.33387 -33.67088 4.22275 -32.67075 C 4.14867 -31.67063 4.11163 -30.89275 4.11163 -30.33713 L 4.11163 -13.44613 L 0 -13.44613 L 0 -8.89 L 4.11163 -8.89 L 4.11163 0 L 10.83469 0 L 10.83469 -8.89 L 15.83531 -8.89 L 15.83531 -13.44613 L 10.83469 -13.44613 L 10.83469 -30.72606 Z " fill="#231f20" />
                                                <path transform="matrix(1,0,0,-1,706.07516,227.35442)" d="M 15.33525 -.05556 C 17.3355 -.24077 19.13202 -.77788 20.72481 -1.66688 C 22.35465 -2.55588 23.74371 -3.70417 24.892 -5.11175 C 26.04029 -6.51933 26.91077 -8.13065 27.50344 -9.94569 C 28.13315 -11.76073 28.448 -13.64985 28.448 -15.61306 C 28.448 -16.50206 28.39244 -17.39106 28.28131 -18.28006 L 9.22337 -18.28006 L 9.22337 -13.39056 L 22.05831 -13.39056 C 22.05831 -12.42748 21.89163 -11.50144 21.55825 -10.61244 C 21.26192 -9.72344 20.7989 -8.90852 20.16919 -8.16769 C 19.57652 -7.38981 18.87273 -6.74158 18.05781 -6.223 C 17.2429 -5.70442 16.33537 -5.38956 15.33525 -5.27844 L 15.33525 -.05556 Z M 15.113 -26.44775 C 15.52046 -26.44775 16.02052 -26.41071 16.61319 -26.33663 C 17.2429 -26.2255 17.89113 -26.05881 18.55787 -25.83656 C 19.26167 -25.57727 19.94694 -25.26242 20.61369 -24.892 C 21.31748 -24.52158 21.92867 -24.07708 22.44725 -23.5585 L 24.892 -27.28119 C 23.66962 -28.7999 22.24352 -29.94819 20.61369 -30.72606 C 18.98385 -31.50394 16.90952 -31.89288 14.39069 -31.89288 C 12.3534 -31.89288 10.44575 -31.48542 8.66775 -30.6705 C 6.88975 -29.81854 5.37104 -28.67025 4.11163 -27.22563 C 2.85221 -25.781 1.85208 -24.0956 1.11125 -22.16944 C .37042 -20.24327 0 -18.16894 0 -15.94644 C 0 -13.83506 .33338 -11.83481 1.00013 -9.94569 C 1.70392 -8.05656 2.64848 -6.40821 3.83381 -5.00063 C 5.01915 -3.556 6.38969 -2.38919 7.94544 -1.50019 C 9.53823 -.61119 11.24215 -.11112 13.05719 0 L 13.05719 -5.334 C 11.68665 -5.59329 10.55687 -6.14892 9.66787 -7.00088 C 8.77887 -7.85283 8.07508 -8.83444 7.5565 -9.94569 C 7.07496 -11.0199 6.72306 -12.13115 6.50081 -13.27944 C 6.3156 -14.42773 6.223 -15.40933 6.223 -16.22425 C 6.223 -17.66888 6.38969 -19.0209 6.72306 -20.28031 C 7.09348 -21.50269 7.6491 -22.5769 8.38994 -23.50294 C 9.13077 -24.39194 10.03829 -25.11425 11.1125 -25.66988 C 12.22375 -26.18846 13.55725 -26.44775 15.113 -26.44775 Z " fill="#231f20" />
                                                <path transform="matrix(1,0,0,-1,744.4907,227.57666)" d="M 21.72494 -8.22325 C 21.16931 -7.5565 20.39144 -6.94531 19.39131 -6.38969 C 18.42823 -5.79702 17.13177 -5.44513 15.50194 -5.334 L 15.50194 0 C 17.53923 -.11112 19.28019 -.55563 20.72481 -1.3335 C 22.20648 -2.07433 23.53998 -3.16706 24.72531 -4.61169 L 21.72494 -8.22325 Z M 15.50194 -26.16994 C 16.83544 -26.02177 17.96521 -25.70692 18.89125 -25.22537 C 19.85433 -24.70679 20.76185 -24.11412 21.61381 -23.44737 L 24.11413 -27.05894 C 22.96583 -28.50356 21.72494 -29.61481 20.39144 -30.39269 C 19.05794 -31.13352 17.4281 -31.5595 15.50194 -31.67063 L 15.50194 -26.16994 Z M 0 -15.77975 C 0 -13.66838 .29633 -11.68665 .889 -9.83456 C 1.51871 -7.98248 2.42623 -6.35265 3.61156 -4.94506 C 4.7969 -3.53748 6.18596 -2.40771 7.77875 -1.55575 C 9.40858 -.66675 11.22363 -.14817 13.22388 0 L 13.22388 -5.38956 C 11.37179 -5.79702 9.89013 -6.94531 8.77887 -8.83444 C 7.66762 -10.68652 7.112 -12.94606 7.112 -15.61306 C 7.112 -16.9836 7.24165 -18.28006 7.50094 -19.50244 C 7.79727 -20.68777 8.20473 -21.74346 8.72331 -22.6695 C 9.2419 -23.59554 9.8716 -24.37342 10.61244 -25.00313 C 11.39031 -25.63283 12.26079 -26.02177 13.22388 -26.16994 L 13.22388 -31.67063 C 11.18658 -31.5595 9.35302 -31.07796 7.72319 -30.226 C 6.09335 -29.337 4.70429 -28.18871 3.556 -26.78113 C 2.40771 -25.3365 1.51871 -23.66963 .889 -21.7805 C .29633 -19.89138 0 -17.89113 0 -15.77975 Z " fill="#231f20" />
                                                <path transform="matrix(1,0,0,-1,779.51736,215.85298)" d="M 0 0 L 6.72306 0 L 6.72306 -43.17206 L 0 -43.17206 L 0 0 Z M 23.33625 -15.27969 C 23.96596 -15.9094 24.4475 -16.65023 24.78087 -17.50219 C 25.15129 -18.3171 25.41058 -19.18758 25.55875 -20.11362 C 25.74396 -21.00262 25.85508 -21.91015 25.89213 -22.83619 C 25.92917 -23.76223 25.94769 -24.66975 25.94769 -25.55875 L 25.94769 -42.06081 L 25.94769 -43.17206 L 19.16906 -43.17206 L 19.16906 -26.11437 C 19.16906 -24.85496 19.1135 -23.6511 19.00237 -22.50281 C 18.89125 -21.35452 18.63196 -20.33587 18.2245 -19.44687 C 17.81704 -18.55787 17.26142 -17.8726 16.55763 -17.39106 C 15.85383 -16.87248 14.87223 -16.61319 13.61281 -16.61319 C 13.09423 -16.61319 12.39044 -16.70579 11.50144 -16.891 C 10.64948 -17.03917 9.81604 -17.29846 9.00113 -17.66887 L 9.00113 -13.39056 C 10.00125 -12.87198 11.07546 -12.42748 12.22375 -12.05706 C 13.40908 -11.68665 14.55737 -11.50144 15.66863 -11.50144 C 17.3355 -11.50144 18.74308 -11.85333 19.89137 -12.55712 C 21.03967 -13.22388 22.18796 -14.1314 23.33625 -15.27969 Z " fill="#231f20" />
                                            </g>
                                        </g>
                                    </g>
                                </g>
                            </g>
                        </g>
                    </g>
                </g>
            </g>
        </g>
    </g>
</svg>