<?xml version="1.0" standalone="no"?>
<!DOCTYPE svg PUBLIC "-//W3C//DTD SVG 20010904//EN"
 "http://www.w3.org/TR/2001/REC-SVG-20010904/DTD/svg10.dtd">
<svg version="1.0" xmlns="http://www.w3.org/2000/svg"
 width="1024.000000pt" height="1024.000000pt" viewBox="0 0 1024.000000 1024.000000"
 preserveAspectRatio="xMidYMid meet">
<metadata>
Created by potrace 1.14, written by Peter Selinger 2001-2017
</metadata>
<g transform="translate(0.000000,1024.000000) scale(0.100000,-0.100000)"
fill="#000000" stroke="none">
<path d="M864 9797 c1 -39 8 -44 52 -42 l34 3 0 -207 0 -206 45 -2 45 -1 0 69
c1 38 1 110 1 159 0 50 0 128 -1 175 l0 84 -88 0 -88 0 0 -32z"/>
<path d="M2641 9260 l2 -50 58 0 58 0 0 -252 c0 -139 0 -267 0 -284 1 -31 1
-31 59 -31 31 0 59 3 62 8 3 4 5 153 5 331 l-1 323 -122 3 -122 3 1 -51z"/>
<path d="M1506 9120 c-38 -12 -75 -47 -93 -88 -18 -43 -16 -263 3 -309 35 -84
174 -116 251 -57 55 42 64 69 64 212 1 146 -10 182 -67 221 -38 26 -111 36
-158 21z m125 -117 c13 -35 11 -217 -3 -247 -22 -49 -108 -43 -128 8 -13 36
-6 227 10 253 26 40 104 31 121 -14z"/>
<path d="M450 9009 c0 -36 0 -36 40 -35 22 1 41 -3 41 -8 1 -6 2 -99 3 -206
l1 -195 45 0 45 0 0 240 0 240 -88 0 -87 1 0 -37z"/>
<path d="M3288 8679 c-10 -6 -15 -780 -5 -796 3 -5 118 -8 256 -8 138 0 251
-2 252 -5 3 -14 4 -826 2 -835 -2 -6 -96 -9 -261 -8 l-257 2 0 -272 0 -272
-275 0 -275 0 -2 263 c-1 144 -2 267 -2 272 -1 6 -148 10 -421 10 l-420 0 0
220 0 220 -282 -2 -283 -3 0 -237 0 -238 -231 0 -231 0 1 -307 1 -308 230 0
230 0 0 -264 c0 -178 3 -265 11 -268 6 -2 98 -5 205 -6 l194 -2 0 -168 c0 -93
-2 -172 -5 -176 -3 -5 -36 -14 -75 -22 -38 -7 -72 -14 -75 -14 -3 -1 -18 -4
-35 -8 -16 -4 -41 -9 -55 -12 -58 -11 -80 -17 -80 -22 0 -31 165 -510 210
-608 10 -22 30 -69 45 -105 33 -77 161 -338 201 -407 88 -154 276 -440 304
-463 3 -3 17 -21 30 -40 14 -19 28 -39 32 -45 122 -153 413 -488 583 -671 6
-6 44 -48 85 -94 41 -46 84 -93 95 -105 83 -92 170 -207 195 -255 16 -32 37
-96 46 -145 2 -11 7 -33 10 -50 27 -124 39 -503 20 -647 -3 -27 -8 -69 -11
-95 -36 -327 -138 -701 -258 -953 -36 -75 -130 -243 -179 -318 -10 -15 -27
-43 -38 -62 -11 -19 -65 -105 -119 -190 l-98 -155 2230 -3 c1227 -1 2232 0
2235 2 4 4 -6 69 -21 141 -3 11 -8 40 -12 65 -14 86 -16 95 -30 165 -13 68
-17 94 -31 200 -3 28 -8 58 -9 67 -4 17 -16 186 -19 262 -1 23 3 40 10 43 7 3
71 -19 141 -47 399 -163 519 -195 733 -193 195 1 357 66 480 193 65 67 138
202 155 287 41 201 19 375 -85 675 l-58 166 25 7 c43 10 126 69 171 120 46 53
87 131 107 209 12 45 15 219 4 251 -1 6 9 34 24 63 58 111 67 228 26 340 -11
31 -22 64 -25 74 -4 10 1 18 14 22 34 11 135 81 179 125 57 56 112 152 132
234 43 166 -6 360 -140 559 -46 69 -161 230 -169 238 -14 13 -154 206 -215
295 -120 177 -108 34 -108 1242 0 778 -3 1053 -12 1053 -6 0 -64 -11 -129 -25
-128 -27 -152 -32 -193 -41 -16 -3 -99 -20 -185 -38 l-158 -33 0 133 0 134
-232 2 -233 3 -1 130 c-1 72 -2 135 -3 141 -1 7 -88 10 -282 10 -219 -1 -283
2 -286 12 -3 7 -6 115 -7 240 l-1 227 -310 2 c-170 1 -318 2 -327 2 -17 1 -18
19 -18 226 l0 225 -27 1 c-16 0 -178 0 -360 0 l-333 1 0 234 c0 129 -3 235 -7
235 -31 5 -1897 3 -1905 -2z m391 -187 c65 -33 76 -59 78 -192 3 -160 -13
-206 -86 -236 -45 -19 -88 -17 -138 6 -69 31 -81 61 -82 208 -1 111 1 131 19
160 42 68 135 92 209 54z m798 -849 l1 -331 -55 -4 c-30 -1 -59 -1 -63 2 -4 3
-8 127 -8 277 0 150 -3 277 -7 282 -3 6 -21 9 -39 7 -60 -4 -73 7 -71 56 2 23
3 43 4 43 1 0 54 0 119 0 l117 0 2 -332z m943 -11 c67 -27 88 -87 84 -244 -3
-115 -20 -155 -81 -187 -36 -18 -121 -14 -158 9 -59 36 -68 61 -70 189 -2 128
5 163 43 204 41 43 116 55 182 29z m-3699 -362 c3 -13 5 -666 2 -676 -3 -9
-91 -12 -123 -5 -3 0 -5 130 -5 287 0 313 2 302 -60 298 -55 -4 -63 3 -62 51
0 31 5 45 16 47 26 5 231 3 232 -2z m3287 -519 c9 -1 12 -50 12 -211 l0 -210
-38 0 -38 0 0 176 c1 108 -3 178 -9 183 -5 4 -22 7 -37 6 -24 -2 -28 2 -28 26
0 26 3 28 43 31 23 2 51 2 62 1 11 -1 26 -2 33 -2z m-2548 -441 l0 -410 -74 0
-74 0 -3 38 c-2 20 -4 178 -4 350 l1 312 -72 0 -71 0 0 60 0 60 148 0 149 0 0
-410z m1320 391 c19 -10 45 -33 58 -51 20 -30 22 -44 22 -170 0 -126 -2 -140
-23 -171 -64 -96 -230 -89 -282 12 -11 21 -16 65 -17 157 -2 144 8 177 72 219
42 29 120 31 170 4z m4200 -1111 c0 -850 1 -883 20 -939 36 -107 106 -222 280
-456 195 -261 261 -358 302 -442 38 -76 43 -95 43 -152 -1 -129 -61 -180 -310
-262 -185 -61 -234 -114 -189 -200 18 -36 33 -51 107 -108 61 -47 93 -90 103
-139 11 -56 -52 -137 -161 -207 -28 -17 -28 -19 -10 -24 110 -31 144 -224 53
-308 -12 -11 -59 -31 -103 -43 -140 -39 -173 -73 -180 -191 -5 -64 9 -116 95
-364 68 -198 88 -292 85 -402 -6 -216 -134 -333 -363 -331 -131 2 -129 0 -78
72 24 33 47 79 51 101 5 22 10 47 12 55 19 85 -14 265 -91 495 -78 230 -89
279 -82 352 10 112 38 144 157 179 45 13 93 31 105 39 58 37 83 169 46 241
-23 44 -47 69 -80 81 -22 8 -19 11 35 51 100 72 139 141 121 210 -9 32 -45 73
-156 175 -70 64 -75 136 -14 187 35 29 70 44 242 104 185 65 250 176 195 336
-27 82 -87 180 -239 395 -237 336 -307 450 -348 569 -20 60 -21 77 -22 876 -1
533 2 822 9 835 5 11 11 21 11 23 1 1 10 4 20 6 114 22 280 58 283 62 2 2 15
4 28 4 l23 0 0 -880z m-1429 -4360 c29 -6 57 -14 61 -18 4 -4 0 -27 -9 -52
-13 -35 -17 -84 -17 -220 -1 -201 8 -321 40 -513 8 -48 14 -93 14 -100 0 -9
-40 -12 -170 -12 -169 0 -171 0 -175 23 -3 12 -7 33 -10 46 -3 13 -7 52 -10
87 -4 35 -8 69 -10 76 -7 20 -19 246 -18 338 2 177 25 280 71 310 74 48 123
56 233 35z"/>
<path d="M3555 8410 c-16 -17 -19 -38 -19 -124 0 -122 14 -156 64 -156 43 0
70 31 71 83 3 115 -3 183 -18 200 -22 24 -75 22 -98 -3z"/>
<path d="M5305 7546 c-22 -22 -23 -30 -22 -136 2 -101 4 -113 24 -129 25 -21
76 -17 95 6 8 10 13 55 14 129 2 111 2 114 -23 134 -34 26 -59 25 -88 -4z"/>
<path d="M3657 6628 c-27 -21 -33 -57 -31 -168 2 -94 4 -106 24 -122 29 -24
75 -23 100 2 21 21 23 37 22 180 0 75 -3 86 -22 102 -26 21 -69 23 -93 6z"/>
<path d="M2105 8400 l-130 -5 2 -52 c0 -29 1 -57 2 -63 1 -6 33 -10 76 -10
l75 0 0 -374 0 -375 82 2 83 2 0 435 0 434 -30 6 c-16 3 -88 3 -160 0z"/>
<path d="M858 8083 c-25 -9 -61 -30 -78 -48 -51 -53 -59 -90 -57 -282 l2 -171
30 -43 c72 -102 234 -126 329 -47 68 56 76 87 76 271 0 179 -7 217 -47 260
-63 66 -162 89 -255 60z m138 -115 c36 -17 42 -47 40 -200 -1 -131 -3 -149
-22 -174 -25 -35 -60 -45 -105 -30 -56 18 -65 50 -64 215 2 125 4 145 22 169
30 41 74 47 129 20z"/>
<path d="M2925 7820 c-72 -16 -118 -53 -157 -125 -19 -37 -21 -55 -21 -230 0
-174 2 -194 21 -231 40 -78 118 -125 212 -126 113 -2 188 40 229 127 19 40 21
63 21 230 0 199 -5 223 -54 282 -51 61 -161 93 -251 73z m137 -149 l32 -28 1
-154 c2 -173 -4 -204 -40 -236 -45 -40 -129 -26 -156 25 -20 36 -20 338 0 374
29 55 112 65 163 19z"/>
</g>
</svg>
